<?xml version="1.0" encoding="utf-8"?>
<!-- Generator: Adobe Illustrator 26.0.1, SVG Export Plug-In . SVG Version: 6.00 Build 0)  -->
<svg version="1.1" id="Calque_1" xmlns="http://www.w3.org/2000/svg" xmlns:xlink="http://www.w3.org/1999/xlink" x="0px" y="0px"
	 viewBox="0 0 1080 1080" style="enable-background:new 0 0 1080 1080;" xml:space="preserve" fill="#2c974b">
<g>
	<path d="M1042.99,13H888.14c-8.29,0-15.01,9.54-15.01,21.3v382.17c0,11.77-6.72,21.3-15.01,21.3H223.45
		c-8.29,0-15.01-9.54-15.01-21.3V34.3c0-11.77-6.72-21.3-15.01-21.3H37.01C28.72,13,22,22.54,22,64.3V1073.7
		c0-18.23,6.72-8.7,15.01-8.7h156.43c8.29,0,15.01-9.54,15.01-21.3V671.52c0-11.77,6.72-21.3,15.01-21.3h634.68
		c8.29,0,15.01,9.54,15.01,21.3v372.17c0,11.77,6.72,21.3,15.01,21.3h154.85c8.29,0,15.01-9.54,15.01-11.3V44.3
		C1058,22.54,1051.28,13,1042.99,13z"/>
	
		<text transform="matrix(1 0 0 1 1108.7393 301.0869)" style="font-family:'MyriadPro-Regular'; font-size:12px; letter-spacing:33;">	</text>
	<path d="M831.67,684.57h-149.9c-3.43,0-6.68,1.04-8.83,2.84l-56.56,47.27c-40.67,33.99-107.21,33.99-147.88,0l-56.56-47.27
		c-2.15-1.79-5.39-2.84-8.83-2.84h-149.9c-9.48,0-14.75,7.34-8.82,12.28l225.84,188.47c1.61,1.34,2.48,3.01,2.48,4.73v159.98
		c0,4.17,5.06,7.56,11.3,7.56h116.87c6.24,0,11.3-3.38,11.3-7.56V890.05c0-1.72,0.88-3.38,2.48-4.73L840.5,696.85
		C846.43,691.9,841.16,684.57,831.67,684.57z"/>
	<path d="M253.95,395.42h130.77c4.13,0,7.92-1.51,9.86-3.92l65.12-80.97c45.64-56.75,120.32-56.75,165.95,0l65.12,80.97
		c1.94,2.41,5.73,3.92,9.86,3.92H831.4c8.43,0,13.82-5.94,9.86-10.86L552.54,25.39c-4.2-5.23-15.52-5.23-19.72,0L244.09,384.56
		C240.13,389.48,245.52,395.42,253.95,395.42z"/>
</g>
</svg>
